<svg xmlns="http://www.w3.org/2000/svg" width="1333.333" height="1333.333" preserveAspectRatio="xMidYMid meet" version="1.0" viewBox="0 0 1000 1000"><metadata>Created by potrace 1.14, written by Peter Selinger 2001-2017</metadata><g fill="#000" stroke="none"><path d="M4800 9820 c-164 -30 -323 -96 -465 -194 -36 -24 -849 -830 -2011 -1991 -1534 -1534 -1961 -1965 -1998 -2023 -90 -138 -160 -315 -185 -467 -14 -90 -12 -290 5 -377 36 -190 114 -366 228 -511 87 -110 3878 -3894 3958 -3950 141 -99 308 -169 483 -201 79 -15 290 -15 380 -1 74 12 189 47 277 85 201 86 92 -17 2209 2099 2031 2030 1993 1991 2078 2159 42 83 89 226 106 321 17 98 17 299 -1 398 -29 160 -99 326 -195 463 -38 54 -586 609 -1993 2016 -1667 1667 -1953 1948 -2026 1996 -137 90 -260 141 -430 178 -91 20 -311 20 -420 0z" transform="translate(0.000000,1000.000000) scale(0.100000,-0.100000)"/></g></svg>